<svg width="22" height="23" viewBox="0 0 22 23" fill="none" xmlns="http://www.w3.org/2000/svg">
<path d="M20.81 12.4567C21 11.9978 21 11.4144 21 10.25C21 9.08556 21 8.50222 20.81 8.04333C20.6844 7.73992 20.5002 7.46424 20.268 7.23203C20.0358 6.99982 19.7601 6.81564 19.4567 6.69C18.9978 6.5 18.4144 6.5 17.25 6.5H10C8.6 6.5 7.9 6.5 7.36556 6.77222C6.89473 7.01198 6.51198 7.39473 6.27222 7.86556C6 8.39889 6 9.09889 6 10.5V17.75C6 18.9144 6 19.4978 6.19 19.9567C6.44444 20.5689 6.93111 21.0567 7.54333 21.31C8.00222 21.5 8.58556 21.5 9.75 21.5C10.9144 21.5 11.4978 21.5 11.9567 21.31M20.81 12.4567C20.6844 12.7601 20.5002 13.0358 20.268 13.268C20.0358 13.5002 19.7601 13.6844 19.4567 13.81C18.9978 14 18.4144 14 17.25 14C16.0856 14 15.5022 14 15.0433 14.19C14.7399 14.3156 14.4642 14.4998 14.232 14.732C13.9998 14.9642 13.8156 15.2399 13.69 15.5433C13.5 16.0022 13.5 16.5856 13.5 17.75C13.5 18.9144 13.5 19.4978 13.31 19.9567C13.1844 20.2601 13.0002 20.5358 12.768 20.768C12.5358 21.0002 12.2601 21.1844 11.9567 21.31M20.81 12.4567C20.2123 14.5177 19.1128 16.3983 17.61 17.9301C16.1072 19.462 14.2481 20.5973 12.1989 21.2344L11.9567 21.31M16 6.5V5.5C16 4.1 16 3.4 15.7278 2.86556C15.4883 2.3949 15.106 2.01217 14.6356 1.77222C14.1 1.5 13.4 1.5 12 1.5H5C3.6 1.5 2.9 1.5 2.36556 1.77222C1.89473 2.01198 1.51198 2.39473 1.27222 2.86556C1 3.39889 1 4.09889 1 5.5V12.5C1 13.9 1 14.6 1.27222 15.1344C1.51222 15.6056 1.89444 15.9878 2.36556 16.2278C2.89889 16.5 3.6 16.5 5.00111 16.5H6" stroke="white" stroke-width="2" stroke-linecap="round" stroke-linejoin="round"/>
</svg>
