<svg width="22" height="22" viewBox="0 0 22 22" fill="none" xmlns="http://www.w3.org/2000/svg">
<path d="M11.88 6.01701L16.654 7.28801M10.8579 9.81302L13.244 10.449M10.9769 16.9661L11.931 17.2211C14.631 17.9411 15.981 18.3001 17.045 17.6891C18.108 17.0791 18.47 15.736 19.193 13.052L20.216 9.25502C20.94 6.57001 21.301 5.228 20.687 4.17C20.073 3.11199 18.724 2.75299 16.023 2.03399L15.069 1.77899C12.369 1.05899 11.0189 0.699984 9.95595 1.31099C8.89194 1.92099 8.52994 3.26399 7.80594 5.94801L6.78393 9.74502C6.05993 12.43 5.69793 13.772 6.31293 14.83C6.92693 15.887 8.27694 16.247 10.9769 16.9661Z" stroke="#EEEEEF" stroke-width="1.5" stroke-linecap="round" stroke-linejoin="round"/>
<path d="M11.0001 19.9461L10.0481 20.2061C7.35405 20.9391 6.00805 21.3061 4.94604 20.6831C3.88604 20.0611 3.52404 18.6931 2.80303 15.9551L1.78203 12.0831C1.06003 9.34605 0.699025 7.97704 1.31203 6.89904C1.84203 5.96603 3.00003 6.00003 4.50004 6.00003" stroke="#EEEEEF" stroke-width="1.5" stroke-linecap="round" stroke-linejoin="round"/>
</svg>
