<svg width="24" height="25" viewBox="0 0 24 25" fill="none" xmlns="http://www.w3.org/2000/svg">
<path d="M21 12.4999C20.7348 12.4999 20.4804 12.6053 20.2929 12.7928C20.1054 12.9804 20 13.2347 20 13.4999V19.4999C20 19.7652 19.8946 20.0195 19.7071 20.207C19.5196 20.3946 19.2652 20.4999 19 20.4999H5C4.73478 20.4999 4.48043 20.3946 4.29289 20.207C4.10536 20.0195 4 19.7652 4 19.4999V5.49994C4 5.23472 4.10536 4.98037 4.29289 4.79283C4.48043 4.6053 4.73478 4.49994 5 4.49994H11C11.2652 4.49994 11.5196 4.39458 11.7071 4.20705C11.8946 4.01951 12 3.76516 12 3.49994C12 3.23472 11.8946 2.98037 11.7071 2.79283C11.5196 2.6053 11.2652 2.49994 11 2.49994H5C4.20435 2.49994 3.44129 2.81601 2.87868 3.37862C2.31607 3.94123 2 4.70429 2 5.49994V19.4999C2 20.2956 2.31607 21.0587 2.87868 21.6213C3.44129 22.1839 4.20435 22.4999 5 22.4999H19C19.7956 22.4999 20.5587 22.1839 21.1213 21.6213C21.6839 21.0587 22 20.2956 22 19.4999V13.4999C22 13.2347 21.8946 12.9804 21.7071 12.7928C21.5196 12.6053 21.2652 12.4999 21 12.4999ZM6 13.2599V17.4999C6 17.7652 6.10536 18.0195 6.29289 18.207C6.48043 18.3946 6.73478 18.4999 7 18.4999H11.24C11.3716 18.5007 11.5021 18.4755 11.6239 18.4257C11.7457 18.3759 11.8566 18.3026 11.95 18.2099L18.87 11.2799L21.71 8.49994C21.8037 8.40698 21.8781 8.29637 21.9289 8.17452C21.9797 8.05266 22.0058 7.92195 22.0058 7.78994C22.0058 7.65793 21.9797 7.52722 21.9289 7.40536C21.8781 7.2835 21.8037 7.1729 21.71 7.07994L17.47 2.78994C17.377 2.69621 17.2664 2.62182 17.1446 2.57105C17.0227 2.52028 16.892 2.49414 16.76 2.49414C16.628 2.49414 16.4973 2.52028 16.3754 2.57105C16.2536 2.62182 16.143 2.69621 16.05 2.78994L13.23 5.61994L6.29 12.5499C6.19732 12.6434 6.12399 12.7542 6.07423 12.876C6.02446 12.9979 5.99924 13.1283 6 13.2599ZM16.76 4.90994L19.59 7.73994L18.17 9.15994L15.34 6.32994L16.76 4.90994ZM8 13.6699L13.93 7.73994L16.76 10.5699L10.83 16.4999H8V13.6699Z" fill="white"/>
</svg>
