<svg width="11" height="20" viewBox="0 0 11 20" fill="none" xmlns="http://www.w3.org/2000/svg">
<path d="M10.413 13.2242L10.4138 13.3008C10.4151 14.3627 10.0174 15.3863 9.29951 16.1687L9.30201 16.1654C8.55434 16.9893 7.54287 17.5268 6.44165 17.6855L6.41582 17.6889V19.6558C6.41582 19.7471 6.37955 19.8346 6.315 19.8992C6.25045 19.9637 6.1629 20 6.07161 20H6.05744H4.55225C4.45776 19.9989 4.36745 19.9609 4.30063 19.8941C4.23381 19.8273 4.19579 19.7369 4.19471 19.6425V17.6889C3.69245 17.6219 3.19894 17.5006 2.72286 17.3272L2.77203 17.343C2.06074 17.1054 1.3934 16.7523 0.79679 16.2979L0.813459 16.3104C0.631671 16.1779 0.456704 16.0363 0.289227 15.8862L0.295061 15.8912C0.202272 15.8023 0.137264 15.7356 0.100037 15.6911C0.0397832 15.6312 0.00420846 15.5509 0.000350158 15.466C-0.00350814 15.3811 0.024631 15.2979 0.0792015 15.2327L0.078368 15.2336L1.22768 13.7267C1.2584 13.6876 1.29711 13.6555 1.34123 13.6325C1.38535 13.6095 1.43387 13.5961 1.48354 13.5934H1.48437C1.5338 13.5842 1.58479 13.5888 1.63181 13.6065C1.67883 13.6243 1.72008 13.6546 1.75107 13.6942L1.75191 13.6951L1.77358 13.7167C2.52718 14.4066 3.44942 14.8856 4.44724 15.1052L4.48558 15.1127C4.73394 15.1694 5.01898 15.2019 5.31151 15.2019L5.36319 15.2027C5.93909 15.2027 6.47249 15.0227 6.91171 14.716L6.90254 14.7218C7.1239 14.5719 7.30322 14.3678 7.42342 14.129C7.54363 13.8902 7.60073 13.6246 7.58929 13.3575V13.3608C7.58929 13.1417 7.52679 12.9375 7.41927 12.7649L7.42177 12.7699C7.32058 12.5976 7.19511 12.4407 7.04923 12.3041L7.04839 12.3032C6.85462 12.1408 6.64161 12.0028 6.41415 11.8923L6.39581 11.884C6.098 11.7318 5.85352 11.6126 5.66239 11.5265C5.47126 11.4403 5.17372 11.3195 4.76978 11.1639C4.47974 11.045 4.25083 10.9519 4.08303 10.8847C3.91523 10.8175 3.68631 10.7189 3.39628 10.5888C3.10624 10.4588 2.87371 10.3435 2.69869 10.243C2.52367 10.1424 2.31337 10.0104 2.06778 9.84708C1.85332 9.70751 1.65217 9.54849 1.46687 9.37202L1.46771 9.37286C1.29994 9.20367 1.14136 9.02562 0.992647 8.83946L0.981813 8.82612C0.824261 8.6346 0.693336 8.42266 0.592598 8.19604L0.585931 8.17854C0.488358 7.94864 0.411651 7.71043 0.356736 7.46679L0.350902 7.43678C0.287495 7.1573 0.255625 6.87159 0.25589 6.58501V6.54001C0.25589 5.49821 0.673441 4.55309 1.35103 3.86468L1.35019 3.86551C2.10488 3.07956 3.09212 2.55687 4.16637 2.37449L4.19638 2.37033V0.354243C4.19638 0.256731 4.23721 0.168387 4.30222 0.105879C4.33395 0.0718923 4.37244 0.0449181 4.41521 0.0266895C4.45798 0.0084608 4.5041 -0.000619201 4.55059 3.2781e-05H6.07327C6.2633 3.2781e-05 6.41748 0.154218 6.41748 0.344242V0.35841V2.32199C6.87587 2.37033 7.29426 2.46117 7.69514 2.59119L7.65097 2.57868C8.03352 2.69537 8.35522 2.82288 8.66443 2.97123L8.62109 2.9529C8.89445 3.08875 9.12698 3.22793 9.34701 3.38295L9.33034 3.37128C9.55259 3.52797 9.69761 3.63576 9.7654 3.69465C9.83318 3.75355 9.88902 3.8055 9.93292 3.85051C9.99287 3.90212 10.0316 3.97405 10.0418 4.0525C10.0519 4.13095 10.0328 4.21039 9.98792 4.27556L9.98876 4.27473L9.08698 5.90493C9.06478 5.95525 9.02917 5.99851 8.98404 6.02996C8.93892 6.06142 8.88601 6.07986 8.83111 6.08328C8.77819 6.09442 8.72257 6.09314 8.67023 6.07955C8.61788 6.06596 8.5694 6.04042 8.52858 6.00494H8.52941C8.50718 5.98272 8.45329 5.93827 8.36772 5.87159C8.28216 5.80492 8.13714 5.70629 7.93267 5.57572C7.73392 5.44917 7.52768 5.33478 7.31509 5.23318L7.28009 5.21818C7.02359 5.10009 6.75691 5.00552 6.48333 4.93564L6.44832 4.92814C6.13772 4.8427 5.81701 4.79953 5.49487 4.79979C4.87763 4.77141 4.26677 4.94203 3.75382 5.28652L3.76466 5.27985C3.4808 5.46827 3.26954 5.7477 3.16563 6.07217C3.06172 6.39663 3.07134 6.7468 3.19292 7.06507L3.18958 7.05507C3.26626 7.23843 3.37794 7.39345 3.51796 7.51763L3.51963 7.51846C3.65409 7.64459 3.7966 7.76432 3.94718 7.87767L3.96051 7.88684C4.1397 8.01019 4.34556 8.12604 4.56142 8.22271L4.58642 8.23271C4.86535 8.36273 5.09038 8.4633 5.26151 8.53442C5.43264 8.60554 5.69323 8.70777 6.04327 8.84112C6.43776 8.99003 6.73919 9.10727 6.94755 9.19283C7.15591 9.2784 7.43872 9.40869 7.79599 9.58372C8.09698 9.72493 8.38699 9.88846 8.66359 10.0729L8.63942 10.0579C8.89779 10.2413 9.12282 10.4247 9.33701 10.6205L9.33201 10.6155C9.5637 10.8178 9.75845 11.0497 9.91625 11.3114L9.92375 11.3248C10.0621 11.569 10.1813 11.8532 10.268 12.1507L10.2755 12.179C10.3663 12.4832 10.418 12.8333 10.418 13.195V13.23V13.2283L10.413 13.2242Z" fill="white"/>
</svg>
