<svg width="25" height="25" viewBox="0 0 25 25" fill="none" xmlns="http://www.w3.org/2000/svg">
<path d="M4.16667 4.16667H10.4167V10.4167H4.16667V4.16667ZM20.8333 4.16667V10.4167H14.5833V4.16667H20.8333ZM14.5833 15.625H16.6667V13.5417H14.5833V11.4583H16.6667V13.5417H18.75V11.4583H20.8333V13.5417H18.75V15.625H20.8333V18.75H18.75V20.8333H16.6667V18.75H13.5417V20.8333H11.4583V16.6667H14.5833V15.625ZM16.6667 15.625V18.75H18.75V15.625H16.6667ZM4.16667 20.8333V14.5833H10.4167V20.8333H4.16667ZM6.25 6.25V8.33333H8.33333V6.25H6.25ZM16.6667 6.25V8.33333H18.75V6.25H16.6667ZM6.25 16.6667V18.75H8.33333V16.6667H6.25ZM4.16667 11.4583H6.25V13.5417H4.16667V11.4583ZM9.375 11.4583H13.5417V15.625H11.4583V13.5417H9.375V11.4583ZM11.4583 6.25H13.5417V10.4167H11.4583V6.25ZM2.08333 2.08333V6.25H0V2.08333C0 1.5308 0.219493 1.0009 0.610194 0.610194C1.0009 0.219493 1.5308 0 2.08333 0L6.25 0V2.08333H2.08333ZM22.9167 0C23.4692 0 23.9991 0.219493 24.3898 0.610194C24.7805 1.0009 25 1.5308 25 2.08333V6.25H22.9167V2.08333H18.75V0H22.9167ZM2.08333 18.75V22.9167H6.25V25H2.08333C1.5308 25 1.0009 24.7805 0.610194 24.3898C0.219493 23.9991 0 23.4692 0 22.9167V18.75H2.08333ZM22.9167 22.9167V18.75H25V22.9167C25 23.4692 24.7805 23.9991 24.3898 24.3898C23.9991 24.7805 23.4692 25 22.9167 25H18.75V22.9167H22.9167Z" fill="white"/>
</svg>
