<svg width="12" height="12" viewBox="0 0 12 12" fill="none" xmlns="http://www.w3.org/2000/svg">
<path fill-rule="evenodd" clip-rule="evenodd" d="M11.3699 1.80468C11.7661 1.40847 11.7661 0.766095 11.3699 0.369889C10.9737 -0.0263156 10.3313 -0.026316 9.9351 0.369889L5.91794 4.38705L1.98284 0.451947C1.58663 0.0557412 0.944259 0.0557413 0.548054 0.451946C0.151848 0.848152 0.151848 1.49053 0.548053 1.88673L4.48316 5.82184L0.369861 9.93513C-0.0263444 10.3313 -0.0263444 10.9737 0.369861 11.3699C0.766066 11.7661 1.40844 11.7661 1.80465 11.3699L5.91794 7.25662L10.1133 11.452C10.5095 11.8482 11.1519 11.8482 11.5481 11.452C11.9443 11.0558 11.9443 10.4134 11.5481 10.0172L7.35273 5.82184L11.3699 1.80468Z" fill="white"/>
</svg>
