<svg width="15" height="16" viewBox="0 0 15 16" fill="none" xmlns="http://www.w3.org/2000/svg">
  <path fill-rule="evenodd" clip-rule="evenodd" d="M8.52513 1.65517H6.47369C6.33767 1.65517 6.20722 1.7133 6.11104 1.81677C6.01486 1.92024 5.96083 2.06057 5.96083 2.2069V2.75862H9.03799V2.2069C9.03799 2.06057 8.98395 1.92024 8.88777 1.81677C8.79159 1.7133 8.66114 1.65517 8.52513 1.65517ZM10.5766 2.75862V2.2069C10.5766 1.62159 10.3604 1.06026 9.97571 0.646385C9.59099 0.232512 9.0692 0 8.52513 0H6.47369C5.92961 0 5.40782 0.232512 5.0231 0.646385C4.63838 1.06026 4.42225 1.62159 4.42225 2.2069V2.75862H1.60254C1.39851 2.75862 1.20284 2.84581 1.05857 3.00101C0.914302 3.15622 0.833252 3.36672 0.833252 3.58621C0.833252 3.8057 0.914302 4.0162 1.05857 4.1714C1.20284 4.3266 1.39851 4.41379 1.60254 4.41379H1.92257L2.24772 12.8276C2.2808 13.681 2.61927 14.4877 3.19236 15.0789C3.76546 15.6701 4.52881 16.0002 5.32283 16H9.67701C10.4709 15.9999 11.2339 15.6697 11.8068 15.0785C12.3797 14.4873 12.718 13.6808 12.7511 12.8276L13.0773 4.41379H13.3973C13.6013 4.41379 13.797 4.3266 13.9413 4.1714C14.0855 4.0162 14.1666 3.8057 14.1666 3.58621C14.1666 3.36672 14.0855 3.15622 13.9413 3.00101C13.797 2.84581 13.6013 2.75862 13.3973 2.75862H10.5766ZM11.5366 4.41379H3.46217L3.78527 12.7581C3.80169 13.1849 3.97086 13.5884 4.25742 13.8841C4.54398 14.1798 4.92573 14.3449 5.32283 14.3448H9.67701C10.0739 14.3446 10.4554 14.1794 10.7418 13.8837C11.0281 13.588 11.1971 13.1847 11.2135 12.7581L11.5366 4.41379ZM5.19154 6.62069V12.1379C5.19154 12.3574 5.27259 12.5679 5.41686 12.7231C5.56113 12.8783 5.7568 12.9655 5.96083 12.9655C6.16485 12.9655 6.36053 12.8783 6.5048 12.7231C6.64907 12.5679 6.73012 12.3574 6.73012 12.1379V6.62069C6.73012 6.4012 6.64907 6.1907 6.5048 6.0355C6.36053 5.8803 6.16485 5.7931 5.96083 5.7931C5.7568 5.7931 5.56113 5.8803 5.41686 6.0355C5.27259 6.1907 5.19154 6.4012 5.19154 6.62069ZM9.03799 5.7931C9.24201 5.7931 9.43769 5.8803 9.58195 6.0355C9.72622 6.1907 9.80727 6.4012 9.80727 6.62069V12.1379C9.80727 12.3574 9.72622 12.5679 9.58195 12.7231C9.43769 12.8783 9.24201 12.9655 9.03799 12.9655C8.83396 12.9655 8.63829 12.8783 8.49402 12.7231C8.34975 12.5679 8.2687 12.3574 8.2687 12.1379V6.62069C8.2687 6.4012 8.34975 6.1907 8.49402 6.0355C8.63829 5.8803 8.83396 5.7931 9.03799 5.7931Z" fill="#2F28D0" />
</svg>